<svg width="220" height="74" viewBox="0 0 220 74" fill="none" xmlns="http://www.w3.org/2000/svg">
<path d="M207.434 20.5996V35.4878L185.882 35.4917V20.5996H179.339V42.72H180.102C187.882 42.7162 195.661 42.7085 203.44 42.6969C204.952 42.6949 206.464 42.6904 207.976 42.6859C210.026 42.6798 212.076 42.6737 214.127 42.6739V45.2385H220V35.4272H214.189C214.105 35.2976 214.105 35.0651 214.105 34.6479V21.48C214.105 21.2676 214.092 21.0533 214.079 20.8504C214.074 20.7644 214.069 20.6805 214.065 20.5996H207.434Z" fill="#00578A"/>
<path d="M131.683 29.3056V42.6516H125.079V20.6069C126.814 20.6069 128.525 20.6069 130.234 20.6165C130.472 20.6531 130.702 20.7331 130.911 20.8528C136.805 23.3592 142.696 25.8726 148.582 28.3931C148.817 28.5044 149.075 28.56 149.335 28.5557C149.595 28.5514 149.851 28.4872 150.082 28.3682C155.784 25.8438 161.494 23.3368 167.211 20.847C167.563 20.6978 167.94 20.6176 168.322 20.6107C169.866 20.5857 171.409 20.6107 173.011 20.6107V42.6804H166.439V29.3787C166.081 29.5227 165.838 29.6111 165.605 29.7149C160.454 31.9946 155.307 34.2794 150.163 36.5693C149.934 36.6897 149.68 36.7552 149.422 36.7605C149.163 36.7658 148.907 36.711 148.674 36.6001C143.312 34.2666 137.941 31.9497 132.563 29.6495C132.303 29.5285 132.034 29.4401 131.683 29.3056Z" fill="#00578A"/>
<path d="M84.1494 20.5996H119.004V21.6744C119.004 23.3924 118.968 25.1104 119.019 26.8285C119.042 27.552 118.788 27.7047 118.109 27.7028C109.34 27.6824 100.57 27.6779 91.8004 27.6894H90.7486V42.4111H84.1494V20.5996Z" fill="#00578A"/>
<path d="M84.0146 53.5857V49.1426H87.246V49.7878H84.8372V53.5857H84.0146Z" fill="#151515"/>
<path d="M90.0741 53.5849C89.6763 53.5946 89.283 53.499 88.9351 53.308C88.6132 53.1219 88.3532 52.8473 88.1868 52.5176C88.0009 52.139 87.9094 51.7221 87.9199 51.3015C87.9084 50.8778 87.9999 50.4574 88.1868 50.0758C88.3532 49.7462 88.6132 49.4715 88.9351 49.2854C89.2826 49.0936 89.6762 48.9979 90.0741 49.0086C90.4733 48.9987 90.8679 49.0942 91.217 49.2854C91.5397 49.47 91.7996 49.7451 91.9634 50.0758C92.1473 50.4549 92.2374 50.8718 92.2264 51.292C92.2378 51.7153 92.1477 52.1352 91.9634 52.5176C91.7996 52.8484 91.5397 53.1235 91.217 53.308C90.8675 53.4983 90.4732 53.5938 90.0741 53.5849ZM90.0741 52.951C90.257 52.9575 90.4389 52.9232 90.6063 52.8504C90.7738 52.7777 90.9224 52.6685 91.041 52.531C91.2847 52.2484 91.4065 51.8354 91.4065 51.292C91.4065 50.7485 91.2847 50.3387 91.041 50.0625C90.9211 49.927 90.7721 49.8197 90.6048 49.7483C90.4375 49.677 90.2562 49.6434 90.0741 49.6501C89.892 49.6431 89.7106 49.6766 89.5433 49.748C89.376 49.8193 89.227 49.9268 89.1073 50.0625C88.8675 50.3374 88.7476 50.7472 88.7476 51.292C88.7476 51.8367 88.8675 52.2497 89.1073 52.531C89.2257 52.6687 89.3743 52.778 89.5418 52.8508C89.7092 52.9236 89.8913 52.9578 90.0741 52.951Z" fill="#151515"/>
<path d="M93.5124 55.4705V50.145C93.5124 49.9732 93.5124 49.7977 93.4927 49.6201C93.473 49.4426 93.4631 49.2651 93.4395 49.0876H94.2281L94.3267 50.118H94.2281C94.311 49.7859 94.5178 49.4961 94.8078 49.3056C95.1217 49.1021 95.4921 48.9984 95.8685 49.0085C96.2417 49.0004 96.6095 49.096 96.9293 49.2844C97.2386 49.4751 97.4835 49.751 97.6332 50.0774C97.8077 50.4675 97.8925 50.8905 97.8816 51.3162C97.8923 51.7432 97.8075 52.1673 97.6332 52.5588C97.4848 52.8876 97.2398 53.1656 96.9293 53.3576C96.6095 53.546 96.2417 53.6417 95.8685 53.6336C95.4966 53.6422 95.1311 53.5384 94.8216 53.3364C94.5341 53.1443 94.3248 52.8596 94.2301 52.5318H94.3287V55.4705H93.5124ZM95.6812 52.9929C95.8695 53.0005 96.057 52.9662 96.2298 52.8927C96.4026 52.8191 96.5561 52.7083 96.6789 52.5685C96.926 52.2829 97.0496 51.8655 97.0496 51.3162C97.0496 50.7669 96.926 50.3527 96.6789 50.0736C96.5548 49.9358 96.4009 49.8268 96.2282 49.7547C96.0556 49.6826 95.8687 49.6491 95.6812 49.6568C95.4955 49.6498 95.3106 49.6836 95.14 49.7557C94.9694 49.8278 94.8175 49.9365 94.6954 50.0736C94.4509 50.3514 94.3287 50.7656 94.3287 51.3162C94.3287 51.8668 94.4509 52.2842 94.6954 52.5685C94.817 52.7087 94.9698 52.8198 95.142 52.8934C95.3142 52.967 95.5014 53.001 95.6891 52.9929H95.6812Z" fill="#151515"/>
<path d="M100.979 53.5849C100.581 53.5944 100.187 53.4988 99.8395 53.3081C99.5188 53.1211 99.2596 52.8466 99.093 52.5176C98.9071 52.1391 98.8156 51.7221 98.8262 51.3015C98.8146 50.8778 98.9061 50.4574 99.093 50.0758C99.2596 49.7468 99.5188 49.4724 99.8395 49.2854C100.187 49.0938 100.581 48.9982 100.979 49.0086C101.378 48.9984 101.772 49.094 102.121 49.2854C102.445 49.4699 102.705 49.745 102.87 50.0758C103.053 50.4551 103.143 50.8718 103.133 51.292C103.143 51.7152 103.053 52.1349 102.87 52.5176C102.705 52.8485 102.445 53.1236 102.121 53.3081C101.772 53.4986 101.378 53.5941 100.979 53.5849ZM100.979 52.951C101.161 52.9576 101.343 52.9232 101.511 52.8504C101.678 52.7777 101.827 52.6685 101.945 52.531C102.188 52.2485 102.309 51.8354 102.309 51.292C102.309 50.7485 102.188 50.3386 101.945 50.0625C101.825 49.9271 101.676 49.8199 101.509 49.7485C101.342 49.6772 101.161 49.6435 100.979 49.65C100.796 49.643 100.615 49.6764 100.448 49.7477C100.28 49.8191 100.131 49.9267 100.012 50.0625C99.7705 50.3374 99.65 50.7472 99.65 51.292C99.65 51.8367 99.7705 52.2497 100.012 52.531C100.13 52.6688 100.279 52.7783 100.446 52.8511C100.614 52.9238 100.796 52.958 100.979 52.951Z" fill="#151515"/>
<path d="M104.076 54.6628V52.9112H104.564C104.775 52.5915 104.924 52.2369 105.005 51.8648C105.103 51.3939 105.148 50.9141 105.142 50.4335V49.1426H108.348V52.9112H109.058V54.6628H108.365V53.5254H104.769V54.6628H104.076ZM105.329 52.9188H107.593V49.7568H105.856V50.5776C105.857 51.0094 105.812 51.4402 105.723 51.8629C105.646 52.2338 105.51 52.5902 105.319 52.9188H105.329Z" fill="#151515"/>
<path d="M112.093 53.5848C111.681 53.5949 111.275 53.4994 110.914 53.308C110.581 53.1214 110.312 52.8429 110.141 52.508C109.948 52.1212 109.854 51.6948 109.866 51.2651C109.854 50.8434 109.95 50.4254 110.145 50.0489C110.324 49.7221 110.597 49.4532 110.931 49.2757C111.29 49.0914 111.691 48.9994 112.097 49.0084C112.389 49.0077 112.68 49.0568 112.955 49.1535C113.212 49.2377 113.445 49.3804 113.633 49.5697L113.354 50.1329C113.189 49.9741 112.991 49.85 112.774 49.7683C112.576 49.692 112.365 49.6518 112.152 49.6499C111.956 49.64 111.76 49.6722 111.579 49.7442C111.398 49.8161 111.235 49.926 111.102 50.0661C110.849 50.3448 110.723 50.7477 110.723 51.2746C110.693 51.7155 110.828 52.1521 111.102 52.5042C111.233 52.6478 111.395 52.7611 111.576 52.8355C111.758 52.9099 111.955 52.9434 112.152 52.9337C112.362 52.9314 112.57 52.8926 112.767 52.8192C112.986 52.7397 113.187 52.6175 113.356 52.4603L113.635 53.014C113.443 53.2079 113.206 53.3539 112.943 53.4397C112.67 53.535 112.383 53.5841 112.093 53.5848Z" fill="#151515"/>
<path d="M114.712 53.5857V49.1426H115.512V50.9801H116.329L117.776 49.1426H118.662L116.981 51.3008L116.768 51.055C116.924 51.0676 117.076 51.1106 117.215 51.1817C117.351 51.26 117.473 51.3599 117.576 51.4774C117.717 51.6406 117.844 51.8153 117.955 51.9997L118.886 53.5799H118.009L117.195 52.2109C117.123 52.0758 117.033 51.9511 116.927 51.8403C116.844 51.7537 116.742 51.6879 116.628 51.6483C116.493 51.6104 116.352 51.5929 116.212 51.5965H115.512V53.5742L114.712 53.5857Z" fill="#151515"/>
<path d="M121.714 53.5849C121.316 53.5946 120.922 53.499 120.574 53.308C120.252 53.1219 119.992 52.8473 119.826 52.5176C119.64 52.1389 119.55 51.7219 119.561 51.3015C119.548 50.8779 119.639 50.4576 119.826 50.0758C119.992 49.7462 120.252 49.4715 120.574 49.2854C120.922 49.0936 121.316 48.9979 121.714 49.0086C122.113 48.9985 122.508 49.094 122.857 49.2854C123.18 49.47 123.44 49.7451 123.604 50.0758C123.788 50.4549 123.878 50.8718 123.867 51.292C123.878 51.7153 123.788 52.1352 123.604 52.5176C123.44 52.8484 123.18 53.1235 122.857 53.308C122.508 53.4986 122.113 53.5941 121.714 53.5849ZM121.714 52.951C121.897 52.9575 122.079 52.9232 122.246 52.8504C122.414 52.7777 122.562 52.6685 122.681 52.531C122.925 52.2484 123.047 51.8354 123.047 51.292C123.047 50.7485 122.925 50.3387 122.681 50.0625C122.561 49.927 122.412 49.8197 122.245 49.7483C122.077 49.677 121.896 49.6434 121.714 49.6501C121.532 49.6431 121.35 49.6766 121.183 49.748C121.015 49.8193 120.866 49.9268 120.747 50.0625C120.507 50.3374 120.387 50.7472 120.387 51.292C120.387 51.8367 120.507 52.2497 120.747 52.531C120.865 52.6687 121.014 52.778 121.181 52.8508C121.349 52.9236 121.531 52.9578 121.714 52.951Z" fill="#151515"/>
<path d="M125.079 53.5763V49.1228H125.835V52.8258H125.587L128.428 49.1324H129.118V53.586H128.363V49.8849H128.618L125.769 53.586L125.079 53.5763ZM127.099 48.7167C126.853 48.7195 126.608 48.6744 126.381 48.5839C126.166 48.4985 125.975 48.3669 125.821 48.199C125.657 48.0162 125.537 47.7998 125.471 47.5658L125.944 47.3964C126.025 47.6433 126.18 47.861 126.389 48.0219C126.598 48.1578 126.847 48.2252 127.099 48.2144C127.352 48.2221 127.603 48.155 127.817 48.0219C128.035 47.8585 128.206 47.6412 128.309 47.3926L128.754 47.5523C128.639 47.9063 128.407 48.2138 128.096 48.428C127.8 48.6186 127.453 48.7192 127.099 48.7167Z" fill="#151515"/>
<path d="M133.023 53.5857V49.1426H133.705L135.378 52.0496L137.058 49.1426H137.736V53.5857H137.013V50.045H137.209L135.58 52.8714H135.175L133.548 50.0354H133.745V53.5857H133.023Z" fill="#151515"/>
<path d="M141.241 53.5855C140.533 53.5855 139.973 53.3831 139.562 52.9783C139.152 52.5755 138.948 52.0237 138.948 51.3096C138.937 50.8885 139.03 50.471 139.218 50.0934C139.386 49.7625 139.646 49.4858 139.967 49.2953C140.304 49.0995 140.69 49.0004 141.081 49.0089C141.444 48.9968 141.804 49.0868 142.117 49.2685C142.403 49.4416 142.629 49.6975 142.764 50.0017C142.92 50.356 142.996 50.7399 142.986 51.1263V51.3898H139.576V50.9144H142.437L142.287 51.0289C142.31 50.6501 142.202 50.2748 141.981 49.9655C141.871 49.8366 141.733 49.7349 141.577 49.6686C141.421 49.6023 141.251 49.5732 141.081 49.5836C140.891 49.5735 140.701 49.6084 140.527 49.6854C140.353 49.7624 140.2 49.8793 140.08 50.0265C139.83 50.3781 139.706 50.8033 139.73 51.2332V51.3134C139.73 51.8518 139.865 52.2586 140.134 52.5335C140.282 52.6755 140.458 52.7855 140.651 52.8565C140.844 52.9275 141.049 52.9579 141.255 52.9459C141.507 52.9485 141.758 52.9104 141.998 52.8332C142.242 52.7487 142.467 52.6191 142.662 52.4514L142.928 53.0051C142.711 53.1956 142.455 53.3387 142.179 53.4251C141.878 53.5302 141.561 53.5844 141.241 53.5855Z" fill="#151515"/>
<path d="M143.794 54.6628V52.9112H144.294C144.51 52.5915 144.663 52.2369 144.746 51.8648C144.846 51.3939 144.893 50.9141 144.886 50.4335V49.1426H148.182V52.9112H148.91V54.6628H148.182V53.5254H144.514V54.6628H143.794ZM145.078 52.9188H147.391V49.7568H145.61V50.5776C145.611 51.0094 145.565 51.4402 145.474 51.8629C145.401 52.2328 145.268 52.5892 145.078 52.9188Z" fill="#151515"/>
<path d="M149.854 53.5761V49.1426H150.609V52.8289H150.364L153.202 49.1522H153.893V53.5857H153.137V49.9013H153.392L150.546 53.5857L149.854 53.5761Z" fill="#151515"/>
<path d="M159.261 54.7974V53.6331H155.373V49.1426H156.178V53.0005H158.431V49.1426H159.235V53.0005H159.951V54.7936L159.261 54.7974Z" fill="#151515"/>
<path d="M161.028 53.5761V49.1426H161.784V52.8289H161.538L164.376 49.1522H165.067V53.5857H164.312V49.9013H164.567L161.72 53.5857L161.028 53.5761Z" fill="#151515"/>
<path d="M166.548 53.5857V49.1426H167.367V50.9801H169.773V49.1426H170.587V53.5857H169.773V51.6156H167.367V53.5857H166.548Z" fill="#151515"/>
<path d="M174.032 53.5848C173.62 53.5949 173.212 53.4994 172.851 53.308C172.517 53.1219 172.247 52.8433 172.077 52.508C171.883 52.1214 171.788 51.695 171.8 51.2651C171.788 50.8433 171.884 50.4252 172.081 50.0489C172.258 49.724 172.528 49.4555 172.859 49.2757C173.219 49.0914 173.621 48.9994 174.028 49.0084C174.321 49.0077 174.612 49.0568 174.888 49.1535C175.145 49.2377 175.378 49.3804 175.567 49.5697L175.285 50.1329C175.12 49.9745 174.923 49.8505 174.707 49.7683C174.507 49.6918 174.295 49.6516 174.081 49.6499C173.885 49.6403 173.69 49.6727 173.509 49.7446C173.327 49.8165 173.165 49.9263 173.032 50.0661C172.777 50.3448 172.651 50.7477 172.652 51.2746C172.622 51.7155 172.757 52.1521 173.032 52.5042C173.162 52.6477 173.324 52.7609 173.506 52.8352C173.687 52.9096 173.884 52.9433 174.081 52.9337C174.292 52.9319 174.5 52.8931 174.697 52.8192C174.917 52.7401 175.118 52.6179 175.287 52.4603L175.569 53.014C175.376 53.2079 175.139 53.3539 174.876 53.4397C174.605 53.5338 174.319 53.5829 174.032 53.5848Z" fill="#151515"/>
<path d="M176.646 53.5857V49.1426H177.461V50.9801H178.275L179.722 49.1426H180.607L178.918 51.3008L178.702 51.055C178.858 51.0671 179.01 51.1102 179.149 51.1817C179.286 51.2594 179.409 51.3594 179.513 51.4774C179.652 51.6416 179.779 51.8162 179.891 51.9997L180.82 53.5799H179.946L179.132 52.2109C179.06 52.0758 178.97 51.9511 178.864 51.8403C178.781 51.7537 178.678 51.6879 178.564 51.6483C178.429 51.6105 178.289 51.593 178.149 51.5965H177.461V53.5742L176.646 53.5857Z" fill="#151515"/>
<path d="M181.628 53.5761V49.1426H182.383V52.8289H182.138L184.975 49.1522H185.667V53.5857H184.922V49.9013H185.177L182.33 53.5857L181.628 53.5761Z" fill="#151515"/>
<path d="M187.148 53.5763V49.1283H187.903V52.8267H187.662L190.496 49.138H191.188V53.586H190.427V49.8895H190.682L187.838 53.586L187.148 53.5763ZM189.165 48.7227C188.921 48.7273 188.679 48.6849 188.452 48.5978C188.238 48.5121 188.047 48.3807 187.893 48.2134C187.731 48.0299 187.611 47.814 187.543 47.581L188.016 47.4118C188.098 47.6517 188.249 47.8633 188.452 48.0211C188.66 48.1574 188.908 48.2248 189.159 48.2134C189.413 48.2213 189.664 48.1543 189.878 48.0211C190.097 47.8583 190.266 47.6412 190.368 47.3926L190.814 47.5521C190.698 47.9059 190.467 48.213 190.155 48.4268C189.862 48.6188 189.518 48.7218 189.165 48.7227Z" fill="#151515"/>
<path d="M198.981 54.7974V53.6331H195.092V49.1426H195.897V53.0005H198.149V49.1426H198.954V53.0005H199.67V54.7936L198.981 54.7974Z" fill="#151515"/>
<path d="M202.773 53.5855C202.064 53.5855 201.505 53.3834 201.095 52.9791C200.683 52.5767 200.479 52.0256 200.479 51.3124C200.466 50.8903 200.558 50.4716 200.744 50.092C200.914 49.762 201.173 49.4857 201.494 49.2949C201.832 49.0991 202.219 49.0001 202.611 49.0089C202.974 48.9968 203.333 49.0867 203.647 49.2682C203.933 49.4422 204.158 49.6975 204.294 50.0005C204.449 50.3546 204.525 50.7378 204.516 51.1236V51.3868H201.109V50.912H203.969L203.819 51.0264C203.842 50.6481 203.734 50.2732 203.512 49.9643C203.403 49.8356 203.265 49.7341 203.109 49.6678C202.954 49.6016 202.784 49.5725 202.615 49.5829C202.424 49.5727 202.234 49.6074 202.06 49.6844C201.886 49.7613 201.733 49.8781 201.613 50.0253C201.36 50.3752 201.235 50.8005 201.259 51.2304V51.3105C201.259 51.8483 201.392 52.264 201.661 52.5291C201.809 52.6706 201.985 52.7803 202.178 52.8512C202.371 52.922 202.577 52.9526 202.782 52.941C203.035 52.9437 203.286 52.9057 203.526 52.8285C203.77 52.744 203.995 52.6146 204.19 52.4471L204.456 53.0001C204.239 53.1899 203.985 53.3328 203.709 53.4196C203.408 53.526 203.092 53.5821 202.773 53.5855Z" fill="#151515"/>
<path d="M205.729 53.5857V49.1426H206.538V50.9801H208.951V49.1426H209.768V53.5857H208.951V51.6156H206.538V53.5857H205.729Z" fill="#151515"/>
<path d="M212.194 53.5857V49.7878H210.575V49.1426H214.614V49.7878H212.998V53.5857H212.194Z" fill="#151515"/>
<path d="M215.495 55.4705V50.145C215.495 49.9732 215.495 49.7977 215.477 49.6201C215.459 49.4426 215.445 49.2651 215.422 49.0876H216.218L216.317 50.118H216.218C216.301 49.7859 216.507 49.4961 216.796 49.3056C217.11 49.1021 217.48 48.9983 217.856 49.0085C218.228 49.0004 218.595 49.096 218.914 49.2844C219.222 49.4752 219.466 49.7511 219.614 50.0774C219.79 50.4671 219.875 50.8902 219.864 51.3162C219.875 51.7434 219.79 52.1678 219.614 52.5588C219.467 52.8874 219.223 53.1654 218.914 53.3576C218.595 53.546 218.228 53.6417 217.856 53.6336C217.485 53.6424 217.119 53.5387 216.81 53.3364C216.523 53.1443 216.315 52.8596 216.22 52.5318H216.319V55.4705H215.495ZM217.658 52.9929C217.845 53.0005 218.032 52.9662 218.205 52.8927C218.377 52.8191 218.53 52.7083 218.653 52.5685C218.9 52.2829 219.022 51.8661 219.022 51.3162C219.022 50.7663 218.9 50.3514 218.653 50.0736C218.529 49.9358 218.375 49.8268 218.203 49.7547C218.031 49.6826 217.845 49.6492 217.658 49.6568C217.472 49.6498 217.288 49.6836 217.118 49.7557C216.948 49.8278 216.796 49.9365 216.674 50.0736C216.425 50.3476 216.301 50.7618 216.301 51.3162C216.301 51.8706 216.423 52.288 216.667 52.5685C216.789 52.7097 216.942 52.8215 217.116 52.8952C217.289 52.9688 217.477 53.0022 217.666 52.9929H217.658Z" fill="#151515"/>
<path d="M11.1779 44.9406C11.0957 42.8936 12.6727 41.7959 13.3893 44.805C14.1059 47.814 15.0793 54.5282 15.0793 54.5282C15.0793 54.5282 11.296 53.8655 11.3371 53.5968C11.3782 53.3281 11.1779 44.9406 11.1779 44.9406Z" fill="#00578A"/>
<path d="M7.54378 40.0185C7.44315 37.4912 9.39902 36.1473 10.2867 39.8502C11.1743 43.5531 12.387 51.8362 12.387 51.8362C12.387 51.8362 7.69085 51.0201 7.74245 50.6886C7.79406 50.3571 7.54378 40.0185 7.54378 40.0185Z" fill="#007D99"/>
<path d="M3.88717 36.3918C3.7761 33.5808 5.90663 32.0807 6.87092 36.2053C7.83521 40.3298 9.15543 49.5475 9.15543 49.5475C9.15543 49.5475 3.04152 43.1588 3.09706 42.7959C3.15259 42.433 3.88717 36.3918 3.88717 36.3918Z" fill="#01A6A0"/>
<path d="M28.5765 73.108C27.7136 59.5516 13.6377 59.4658 7.59469 54.6578C1.55169 49.8497 0.224122 37.577 0.596863 34.8233C0.969603 32.0697 2.43248 30.7095 3.64772 34.5554C4.86295 38.4013 5.99904 45.3275 10.5843 48.5278C15.1695 51.728 23.7607 52.1491 18.8714 48.6145C12.4888 44.0004 13.5941 39.5407 15.1101 38.6081C16.2695 37.8949 18.9837 42.8878 22.7647 44.9268C26.5457 46.9659 32.2024 48.57 34.8193 54.922C37.7941 62.1429 28.5765 73.108 28.5765 73.108Z" fill="#00C6BF"/>
<path d="M57.2616 6.02584C53.0957 3.18033 46.1738 1.55216 39.3819 5.92378C36.6284 8.54727 34.3134 12.1022 32.7531 16.7188C32.7531 16.7188 24.768 7.92704 11.9924 12.7223C-0.783225 17.5176 0.00966736 31.37 0.00966736 31.37C0.00966736 31.37 3.68607 20.0901 15.9798 19.3755C28.2736 18.661 34.6748 30.5137 34.6748 30.5137C34.6748 30.5137 36.2357 18.5052 47.3848 15.6469C57.667 13.0209 63.8547 21.1032 61.2542 31.1633C65.6852 20.9246 63.8827 10.5455 57.2616 6.02584Z" fill="#00578A"/>
<path d="M52.2402 48.9835C52.2402 48.9835 41.7148 36.4876 23.1582 43.1603C23.1582 43.1603 32.6414 42.9591 36.9605 53.7892C39.6482 60.528 33.1253 70.4159 33.1253 70.4159C33.1253 70.4159 44.5943 60.9892 52.2402 48.9835Z" fill="#00578A"/>
<path d="M71.3442 8.42509C65.0524 -0.83138 49.3254 -3.57641 39.3519 5.89651C46.1489 1.53438 53.076 3.15902 57.245 5.99835C63.8787 10.5082 65.6647 20.8545 61.2508 31.0863C60.9792 32.1239 60.6312 33.1402 60.2098 34.1268C55.9591 44.1294 50.8869 50.4956 50.8869 50.4956C43.4648 61.7001 32.8516 70.5508 32.8516 70.5508C73.9601 53.3264 82.1291 24.305 71.3442 8.42509Z" fill="#00C6BF"/>
<path style="mix-blend-mode:multiply" opacity="0.29" d="M56.6412 16.5767C62.147 19.9561 62.2475 26.7855 61.134 31.1007C65.5422 20.8715 63.7449 10.5278 57.1428 6.01906C52.9889 3.18045 46.0868 1.55622 39.3145 5.91725C44.7852 2.7324 57.5208 0.145825 56.6412 16.5767Z" fill="#00578A"/>
<path style="mix-blend-mode:multiply" opacity="0.29" d="M48.4875 45.6426C46.2541 53.6628 37.1416 66.439 33.1211 70.4161C33.1211 70.4161 42.8591 62.485 52.2398 48.7616C51.0784 47.6922 49.8276 46.5337 48.4875 45.6426Z" fill="#00578A"/>
</svg>
