<svg width="148" height="50" viewBox="0 0 148 50" fill="none" xmlns="http://www.w3.org/2000/svg">
<path d="M139.547 13.8574V23.8731L125.049 23.8757V13.8574H120.646V28.7384H121.16C126.394 28.7358 131.627 28.7307 136.86 28.7229C137.877 28.7215 138.895 28.7185 139.912 28.7155C141.291 28.7114 142.67 28.7073 144.049 28.7074V30.4327H148V23.8324H144.091C144.035 23.7451 144.035 23.5888 144.035 23.3081V14.4497C144.035 14.3068 144.026 14.1626 144.017 14.0261C144.014 13.9683 144.01 13.9118 144.008 13.8574H139.547Z" fill="#00578A"/>
<path d="M88.5869 19.7142V28.6924H84.1445V13.8623C85.312 13.8623 86.4627 13.8623 87.6121 13.8688C87.7725 13.8934 87.927 13.9472 88.0681 14.0277C92.0331 15.7139 95.9956 17.4047 99.9555 19.1003C100.114 19.1752 100.287 19.2126 100.462 19.2097C100.637 19.2068 100.809 19.1636 100.965 19.0835C104.801 17.3853 108.642 15.6988 112.488 14.0239C112.724 13.9235 112.978 13.8695 113.235 13.8649C114.274 13.8481 115.312 13.8649 116.389 13.8649V28.7118H111.969V19.7633C111.727 19.8603 111.564 19.9197 111.408 19.9895C107.943 21.5231 104.48 23.0602 101.019 24.6007C100.865 24.6817 100.694 24.7257 100.52 24.7293C100.347 24.7329 100.174 24.696 100.017 24.6214C96.41 23.0516 92.7973 21.493 89.179 19.9455C89.0043 19.8641 88.8232 19.8047 88.5869 19.7142Z" fill="#00578A"/>
<path d="M56.6094 13.8574H80.0571V14.5804C80.0571 15.7362 80.0327 16.892 80.0674 18.0478C80.0829 18.5345 79.9118 18.6372 79.4551 18.6359C73.5555 18.6222 67.6559 18.6192 61.7564 18.6269H61.0488V28.5306H56.6094V13.8574Z" fill="#00578A"/>
<path d="M56.5195 36.0495V33.0605H58.6933V33.4946H57.0729V36.0495H56.5195Z" fill="#151515"/>
<path d="M60.5963 36.0479C60.3287 36.0544 60.0641 35.9901 59.8301 35.8616C59.6135 35.7364 59.4386 35.5517 59.3267 35.3299C59.2016 35.0752 59.1401 34.7947 59.1471 34.5118C59.1394 34.2267 59.2009 33.944 59.3267 33.6872C59.4386 33.4655 59.6135 33.2807 59.8301 33.1555C60.0639 33.0264 60.3286 32.9621 60.5963 32.9693C60.8649 32.9626 61.1303 33.0269 61.3652 33.1555C61.5823 33.2796 61.7571 33.4647 61.8673 33.6872C61.991 33.9423 62.0516 34.2227 62.0442 34.5054C62.0519 34.7901 61.9913 35.0727 61.8673 35.3299C61.7571 35.5524 61.5823 35.7375 61.3652 35.8616C61.13 35.9896 60.8648 36.0539 60.5963 36.0479ZM60.5963 35.6214C60.7193 35.6258 60.8417 35.6027 60.9544 35.5538C61.067 35.5048 61.167 35.4314 61.2468 35.3389C61.4107 35.1488 61.4927 34.871 61.4927 34.5054C61.4927 34.1398 61.4107 33.8641 61.2468 33.6783C61.1661 33.5871 61.0659 33.5149 60.9533 33.4669C60.8408 33.4189 60.7188 33.3963 60.5963 33.4008C60.4738 33.3962 60.3518 33.4187 60.2392 33.4667C60.1267 33.5147 60.0264 33.587 59.9459 33.6783C59.7846 33.8632 59.7039 34.1389 59.7039 34.5054C59.7039 34.8718 59.7846 35.1497 59.9459 35.3389C60.0256 35.4315 60.1255 35.5051 60.2382 35.554C60.3509 35.603 60.4733 35.626 60.5963 35.6214Z" fill="#151515"/>
<path d="M62.9085 37.3183V33.7357C62.9085 33.6202 62.9085 33.502 62.8952 33.3826C62.8819 33.2632 62.8753 33.1438 62.8594 33.0244H63.3899L63.4563 33.7175H63.3899C63.4457 33.4941 63.5848 33.2992 63.7799 33.171C63.9911 33.0341 64.2403 32.9643 64.4935 32.9712C64.7445 32.9657 64.992 33.03 65.2071 33.1568C65.4152 33.2851 65.5799 33.4706 65.6806 33.6902C65.798 33.9527 65.8551 34.2372 65.8477 34.5236C65.8549 34.8109 65.7979 35.0961 65.6806 35.3596C65.5808 35.5807 65.4159 35.7678 65.2071 35.8969C64.992 36.0237 64.7445 36.088 64.4935 36.0826C64.2433 36.0884 63.9974 36.0185 63.7892 35.8827C63.5958 35.7535 63.455 35.5619 63.3913 35.3414H63.4576V37.3183H62.9085ZM64.3675 35.6516C64.4941 35.6567 64.6203 35.6336 64.7365 35.5841C64.8528 35.5347 64.956 35.4601 65.0386 35.366C65.2049 35.1739 65.288 34.8931 65.288 34.5236C65.288 34.1541 65.2049 33.8755 65.0386 33.6877C64.9552 33.595 64.8516 33.5217 64.7355 33.4732C64.6194 33.4247 64.4936 33.4021 64.3675 33.4073C64.2426 33.4026 64.1181 33.4253 64.0034 33.4738C63.8886 33.5224 63.7864 33.5954 63.7043 33.6877C63.5398 33.8746 63.4576 34.1532 63.4576 34.5236C63.4576 34.894 63.5398 35.1748 63.7043 35.366C63.7861 35.4604 63.8889 35.5352 64.0047 35.5846C64.1206 35.6341 64.2465 35.657 64.3728 35.6516H64.3675Z" fill="#151515"/>
<path d="M67.931 36.0479C67.6634 36.0542 67.3988 35.99 67.1648 35.8617C66.949 35.7359 66.7746 35.5512 66.6626 35.3299C66.5375 35.0752 66.476 34.7947 66.4831 34.5118C66.4753 34.2267 66.5369 33.9439 66.6626 33.6872C66.7746 33.4659 66.949 33.2813 67.1648 33.1555C67.3986 33.0266 67.6633 32.9623 67.931 32.9693C68.1996 32.9624 68.4651 33.0267 68.6999 33.1555C68.9173 33.2796 69.0926 33.4647 69.2034 33.6872C69.3267 33.9424 69.3873 34.2227 69.3803 34.5054C69.3873 34.7901 69.3267 35.0724 69.2034 35.3299C69.0926 35.5525 68.9173 35.7375 68.6999 35.8617C68.4648 35.9898 68.1995 36.0541 67.931 36.0479ZM67.931 35.6215C68.054 35.6259 68.1764 35.6027 68.2891 35.5538C68.4017 35.5049 68.5017 35.4314 68.5815 35.3389C68.7446 35.1488 68.8261 34.871 68.8261 34.5054C68.8261 34.1397 68.7446 33.864 68.5815 33.6782C68.5008 33.5872 68.4005 33.515 68.288 33.467C68.1755 33.4191 68.0535 33.3964 67.931 33.4008C67.8085 33.396 67.6864 33.4185 67.5739 33.4665C67.4613 33.5145 67.3611 33.5869 67.2806 33.6782C67.1184 33.8632 67.0373 34.1389 67.0373 34.5054C67.0373 34.8718 67.1184 35.1497 67.2806 35.3389C67.3602 35.4316 67.4601 35.5052 67.5728 35.5542C67.6855 35.6032 67.808 35.6261 67.931 35.6215Z" fill="#151515"/>
<path d="M70.0156 36.7741V35.5958H70.3441C70.4855 35.3807 70.5858 35.1422 70.6402 34.8919C70.7061 34.5751 70.737 34.2523 70.7324 33.929V33.0605H72.8891V35.5958H73.3669V36.7741H72.9008V36.009H70.4818V36.7741H70.0156ZM70.8583 35.6009H72.3814V33.4737H71.2128V34.0259C71.2135 34.3164 71.1835 34.6062 71.1232 34.8906C71.072 35.1401 70.9803 35.3799 70.8518 35.6009H70.8583Z" fill="#151515"/>
<path d="M75.4086 36.0498C75.132 36.0566 74.8584 35.9923 74.6155 35.8635C74.3914 35.738 74.2106 35.5507 74.096 35.3254C73.966 35.0652 73.9025 34.7783 73.9109 34.4892C73.9023 34.2056 73.9669 33.9244 74.0986 33.6711C74.2187 33.4512 74.4026 33.2703 74.6274 33.1509C74.8686 33.0269 75.1384 32.965 75.4112 32.9711C75.6082 32.9706 75.8037 33.0037 75.9889 33.0687C76.1617 33.1254 76.3181 33.2214 76.4449 33.3487L76.2572 33.7276C76.1459 33.6208 76.0132 33.5373 75.8673 33.4823C75.7338 33.431 75.5918 33.404 75.4482 33.4026C75.3166 33.396 75.1851 33.4177 75.0631 33.4661C74.9411 33.5145 74.8316 33.5884 74.7424 33.6826C74.5723 33.8702 74.4872 34.1412 74.4872 34.4957C74.4669 34.7922 74.5575 35.086 74.7424 35.3228C74.8301 35.4194 74.9391 35.4956 75.0613 35.5457C75.1835 35.5957 75.3158 35.6183 75.4482 35.6118C75.5898 35.6102 75.7299 35.5841 75.862 35.5347C76.0097 35.4812 76.1446 35.399 76.2586 35.2933L76.4463 35.6657C76.3171 35.7962 76.1575 35.8944 75.981 35.9522C75.7973 36.0163 75.6037 36.0493 75.4086 36.0498Z" fill="#151515"/>
<path d="M77.1699 36.0495V33.0605H77.7085V34.2967H78.2575L79.2314 33.0605H79.8274L78.6967 34.5124L78.5529 34.3471C78.6579 34.3555 78.7601 34.3845 78.8536 34.4323C78.9451 34.485 79.0273 34.5522 79.0967 34.6312C79.1915 34.7411 79.2768 34.8586 79.3516 34.9826L79.9778 36.0457H79.3882L78.8405 35.1247C78.7922 35.0338 78.7315 34.9499 78.6601 34.8754C78.6044 34.8171 78.5354 34.7728 78.4588 34.7462C78.3679 34.7207 78.2736 34.7089 78.1791 34.7113H77.7085V36.0418L77.1699 36.0495Z" fill="#151515"/>
<path d="M81.8809 36.0498C81.6131 36.0564 81.3484 35.9921 81.1143 35.8636C80.8977 35.7384 80.7227 35.5536 80.6107 35.3318C80.486 35.0771 80.4249 34.7966 80.4324 34.5137C80.4242 34.2288 80.4853 33.946 80.6107 33.6892C80.7227 33.4674 80.8977 33.2827 81.1143 33.1575C81.3482 33.0284 81.613 32.9641 81.8809 32.9712C82.1495 32.9644 82.4151 33.0287 82.65 33.1575C82.8672 33.2816 83.0421 33.4667 83.1524 33.6892C83.2761 33.9442 83.3368 34.2246 83.3294 34.5073C83.3371 34.7921 83.2764 35.0746 83.1524 35.3318C83.0421 35.5543 82.8672 35.7395 82.65 35.8636C82.4149 35.9918 82.1495 36.056 81.8809 36.0498ZM81.8809 35.6234C82.0039 35.6278 82.1264 35.6047 82.2391 35.5557C82.3518 35.5068 82.4518 35.4333 82.5316 35.3408C82.6956 35.1508 82.7776 34.8729 82.7776 34.5073C82.7776 34.1417 82.6956 33.866 82.5316 33.6802C82.4509 33.5891 82.3506 33.5169 82.238 33.4689C82.1254 33.4209 82.0034 33.3983 81.8809 33.4028C81.7583 33.3981 81.6362 33.4206 81.5236 33.4686C81.411 33.5166 81.3107 33.5889 81.2302 33.6802C81.0688 33.8651 80.9881 34.1408 80.9881 34.5073C80.9881 34.8738 81.0688 35.1516 81.2302 35.3408C81.3099 35.4335 81.4099 35.507 81.5226 35.556C81.6353 35.6049 81.7578 35.628 81.8809 35.6234Z" fill="#151515"/>
<path d="M84.1445 36.0428V33.0468H84.6529V35.5379H84.4865L86.3974 33.0533H86.8618V36.0493H86.3535V33.5595H86.5251L84.6089 36.0493L84.1445 36.0428ZM85.5032 32.7736C85.3376 32.7755 85.1734 32.7451 85.0201 32.6842C84.876 32.6268 84.7473 32.5383 84.6435 32.4253C84.5331 32.3023 84.4526 32.1567 84.408 31.9993L84.726 31.8854C84.7807 32.0515 84.885 32.1979 85.0254 32.3062C85.1665 32.3976 85.3338 32.4429 85.5032 32.4357C85.6739 32.4409 85.8423 32.3957 85.9862 32.3062C86.1334 32.1962 86.2478 32.0501 86.3175 31.8828L86.6169 31.9903C86.5392 32.2284 86.3836 32.4353 86.1738 32.5794C85.9751 32.7076 85.7416 32.7752 85.5032 32.7736Z" fill="#151515"/>
<path d="M89.4883 36.0495V33.0605H89.947L91.072 35.0162L92.2023 33.0605H92.6584V36.0495H92.1719V33.6676H92.3041L91.2082 35.569H90.9359L89.8413 33.6612H89.9735V36.0495H89.4883Z" fill="#151515"/>
<path d="M95.0178 36.0503C94.5412 36.0503 94.1647 35.9141 93.8884 35.6418C93.6125 35.3708 93.4752 34.9996 93.4752 34.5192C93.4677 34.2359 93.5299 33.955 93.6565 33.701C93.7699 33.4784 93.9446 33.2922 94.1604 33.1641C94.3876 33.0324 94.6472 32.9657 94.9103 32.9714C95.1546 32.9633 95.3961 33.0238 95.6071 33.1461C95.7996 33.2626 95.9515 33.4347 96.0423 33.6393C96.1471 33.8777 96.198 34.1359 96.1913 34.3959V34.5731H93.8975V34.2533H95.8221L95.7211 34.3304C95.737 34.0755 95.6643 33.823 95.5152 33.6149C95.4416 33.5283 95.3485 33.4599 95.2435 33.4152C95.1385 33.3706 95.0244 33.3511 94.9103 33.358C94.7823 33.3513 94.6544 33.3747 94.5374 33.4265C94.4203 33.4783 94.3172 33.557 94.2368 33.656C94.0682 33.8925 93.9851 34.1786 94.0011 34.4678V34.5217C94.0011 34.884 94.0917 35.1576 94.2731 35.3425C94.3725 35.4381 94.4908 35.512 94.6206 35.5598C94.7503 35.6076 94.8887 35.628 95.0269 35.62C95.1966 35.6217 95.3654 35.5961 95.5268 35.5442C95.6908 35.4873 95.8424 35.4001 95.9737 35.2873L96.1524 35.6598C96.0063 35.7879 95.8346 35.8842 95.6486 35.9424C95.4459 36.013 95.2327 36.0495 95.0178 36.0503Z" fill="#151515"/>
<path d="M96.7344 36.7741V35.5958H97.0711C97.216 35.3807 97.3188 35.1422 97.3746 34.8919C97.4421 34.5751 97.4738 34.2523 97.4691 33.929V33.0605H99.6864V35.5958H100.176V36.7741H99.6864V36.009H97.2188V36.7741H96.7344ZM97.5982 35.6009H99.1541V33.4737H97.9562V34.0259C97.9569 34.3164 97.9261 34.6062 97.8644 34.8906C97.8156 35.1394 97.7257 35.3792 97.5982 35.6009Z" fill="#151515"/>
<path d="M100.811 36.0431V33.0605H101.319V35.5404H101.154L103.063 33.067H103.528V36.0495H103.019V33.571H103.191L101.276 36.0495L100.811 36.0431Z" fill="#151515"/>
<path d="M107.139 36.8647V36.0814H104.523V33.0605H105.065V35.6559H106.58V33.0605H107.122V35.6559H107.603V36.8621L107.139 36.8647Z" fill="#151515"/>
<path d="M108.328 36.0431V33.0605H108.836V35.5404H108.671L110.58 33.067H111.045V36.0495H110.537V33.571H110.709L108.794 36.0495L108.328 36.0431Z" fill="#151515"/>
<path d="M112.043 36.0495V33.0605H112.594V34.2967H114.213V33.0605H114.76V36.0495H114.213V34.7242H112.594V36.0495H112.043Z" fill="#151515"/>
<path d="M117.076 36.0478C116.799 36.0546 116.525 35.9904 116.282 35.8616C116.057 35.7364 115.876 35.549 115.762 35.3234C115.631 35.0633 115.567 34.7765 115.575 34.4873C115.567 34.2035 115.632 33.9223 115.764 33.6691C115.883 33.4505 116.065 33.2699 116.287 33.149C116.529 33.025 116.8 32.9631 117.074 32.9692C117.271 32.9687 117.467 33.0017 117.652 33.0668C117.825 33.1234 117.982 33.2194 118.109 33.3468L117.92 33.7256C117.808 33.6191 117.676 33.5356 117.53 33.4803C117.396 33.4289 117.254 33.4019 117.109 33.4007C116.978 33.3943 116.846 33.416 116.724 33.4644C116.602 33.5128 116.493 33.5866 116.404 33.6807C116.232 33.8682 116.147 34.1392 116.148 34.4937C116.128 34.7903 116.219 35.084 116.404 35.3208C116.491 35.4174 116.6 35.4935 116.723 35.5436C116.845 35.5936 116.977 35.6162 117.109 35.6098C117.251 35.6086 117.392 35.5825 117.524 35.5328C117.672 35.4796 117.807 35.3974 117.921 35.2913L118.11 35.6638C117.981 35.7942 117.821 35.8925 117.644 35.9502C117.462 36.0135 117.27 36.0465 117.076 36.0478Z" fill="#151515"/>
<path d="M118.836 36.0495V33.0605H119.384V34.2967H119.931L120.905 33.0605H121.5L120.364 34.5124L120.219 34.3471C120.324 34.3553 120.426 34.3842 120.52 34.4323C120.612 34.4846 120.694 34.5519 120.764 34.6312C120.858 34.7417 120.943 34.8592 121.019 34.9826L121.644 36.0457H121.056L120.508 35.1247C120.46 35.0338 120.399 34.9499 120.327 34.8754C120.272 34.8171 120.203 34.7728 120.126 34.7462C120.035 34.7208 119.941 34.709 119.846 34.7113H119.384V36.0418L118.836 36.0495Z" fill="#151515"/>
<path d="M122.186 36.0431V33.0605H122.694V35.5404H122.529L124.437 33.067H124.903V36.0495H124.401V33.571H124.573L122.658 36.0495L122.186 36.0431Z" fill="#151515"/>
<path d="M125.9 36.0428V33.0505H126.408V35.5385H126.246L128.153 33.057H128.618V36.0493H128.106V33.5626H128.277L126.364 36.0493L125.9 36.0428ZM127.257 32.7776C127.093 32.7807 126.93 32.7522 126.777 32.6936C126.634 32.6359 126.505 32.5475 126.401 32.435C126.292 32.3115 126.212 32.1663 126.166 32.0095L126.484 31.8958C126.539 32.0571 126.641 32.1995 126.777 32.3057C126.918 32.3974 127.084 32.4427 127.253 32.435C127.424 32.4403 127.593 32.3953 127.737 32.3057C127.884 32.1961 127.997 32.0501 128.066 31.8828L128.367 31.9902C128.288 32.2281 128.133 32.4347 127.923 32.5785C127.726 32.7077 127.494 32.777 127.257 32.7776Z" fill="#151515"/>
<path d="M133.861 36.8647V36.0814H131.244V33.0605H131.786V35.6559H133.301V33.0605H133.842V35.6559H134.324V36.8621L133.861 36.8647Z" fill="#151515"/>
<path d="M136.411 36.0503C135.934 36.0503 135.558 35.9143 135.283 35.6423C135.005 35.3716 134.868 35.0009 134.868 34.5211C134.86 34.2371 134.921 33.9554 135.047 33.7001C135.161 33.478 135.335 33.2922 135.551 33.1639C135.779 33.0321 136.039 32.9655 136.302 32.9714C136.547 32.9633 136.788 33.0238 137 33.1459C137.191 33.2629 137.343 33.4346 137.435 33.6385C137.539 33.8767 137.59 34.1345 137.584 34.3941V34.5711H135.292V34.2517H137.216L137.115 34.3287C137.131 34.0742 137.058 33.822 136.909 33.6141C136.835 33.5276 136.743 33.4593 136.638 33.4147C136.533 33.3702 136.419 33.3506 136.305 33.3576C136.177 33.3507 136.049 33.3741 135.932 33.4258C135.815 33.4776 135.712 33.5562 135.631 33.6552C135.461 33.8906 135.376 34.1767 135.393 34.4659V34.5198C135.393 34.8816 135.482 35.1612 135.664 35.3396C135.763 35.4348 135.882 35.5085 136.011 35.5562C136.141 35.6039 136.28 35.6245 136.418 35.6166C136.587 35.6185 136.756 35.5929 136.918 35.541C137.082 35.4842 137.234 35.3971 137.365 35.2844L137.544 35.6564C137.398 35.7841 137.227 35.8803 137.041 35.9386C136.839 36.0102 136.626 36.048 136.411 36.0503Z" fill="#151515"/>
<path d="M138.398 36.0495V33.0605H138.943V34.2967H140.566V33.0605H141.116V36.0495H140.566V34.7242H138.943V36.0495H138.398Z" fill="#151515"/>
<path d="M142.749 36.0495V33.4946H141.66V33.0605H144.377V33.4946H143.29V36.0495H142.749Z" fill="#151515"/>
<path d="M144.969 37.3164V33.7337C144.969 33.6182 144.969 33.5001 144.957 33.3807C144.945 33.2613 144.936 33.1418 144.92 33.0224H145.456L145.522 33.7156H145.456C145.511 33.4922 145.65 33.2972 145.845 33.1691C146.056 33.0322 146.305 32.9624 146.558 32.9692C146.808 32.9637 147.055 33.0281 147.269 33.1548C147.476 33.2832 147.64 33.4688 147.74 33.6883C147.858 33.9505 147.916 34.2351 147.908 34.5217C147.916 34.8091 147.858 35.0945 147.74 35.3576C147.641 35.5786 147.477 35.7657 147.269 35.895C147.055 36.0217 146.808 36.0861 146.558 36.0806C146.308 36.0866 146.062 36.0168 145.854 35.8807C145.661 35.7515 145.521 35.5599 145.457 35.3394H145.523V37.3164H144.969ZM146.424 35.6497C146.55 35.6547 146.676 35.6316 146.792 35.5822C146.908 35.5327 147.011 35.4582 147.093 35.3641C147.26 35.172 147.342 34.8916 147.342 34.5217C147.342 34.1517 147.26 33.8726 147.093 33.6857C147.01 33.593 146.907 33.5197 146.791 33.4712C146.675 33.4227 146.55 33.4002 146.424 33.4053C146.299 33.4006 146.175 33.4234 146.061 33.4719C145.946 33.5204 145.844 33.5935 145.763 33.6857C145.595 33.8701 145.511 34.1487 145.511 34.5217C145.511 34.8946 145.593 35.1754 145.757 35.3641C145.839 35.4591 145.943 35.5343 146.059 35.5839C146.176 35.6334 146.302 35.6559 146.429 35.6497H146.424Z" fill="#151515"/>
<path d="M7.51966 30.2322C7.46437 28.8552 8.52526 28.1167 9.00733 30.141C9.4894 32.1653 10.1443 36.6821 10.1443 36.6821C10.1443 36.6821 7.59914 36.2362 7.62678 36.0555C7.65443 35.8748 7.51966 30.2322 7.51966 30.2322Z" fill="#00578A"/>
<path d="M5.07478 26.9204C5.00708 25.2203 6.32285 24.3162 6.91999 26.8072C7.51712 29.2983 8.33297 34.8705 8.33297 34.8705C8.33297 34.8705 5.17372 34.3215 5.20844 34.0985C5.24315 33.8755 5.07478 26.9204 5.07478 26.9204Z" fill="#007D99"/>
<path d="M2.61577 24.4822C2.54105 22.5911 3.97431 21.582 4.62302 24.3567C5.27172 27.1314 6.15987 33.3324 6.15987 33.3324C6.15987 33.3324 2.04688 29.0345 2.08424 28.7904C2.1216 28.5463 2.61577 24.4822 2.61577 24.4822Z" fill="#01A6A0"/>
<path d="M19.2229 49.1833C18.6424 40.0636 9.17313 40.0059 5.10784 36.7714C1.04255 33.5369 0.149459 25.2806 0.400212 23.4282C0.650965 21.5758 1.63508 20.6607 2.4526 23.248C3.27013 25.8352 4.0344 30.4947 7.11901 32.6476C10.2036 34.8005 15.9832 35.0837 12.694 32.7059C8.40026 29.6019 9.14377 26.6017 10.1637 25.9743C10.9436 25.4945 12.7695 28.8534 15.3131 30.2251C17.8567 31.5968 21.6621 32.6759 23.4225 36.9491C25.4238 41.8068 19.2229 49.1833 19.2229 49.1833Z" fill="#00C6BF"/>
<path d="M38.5215 4.05435C35.7189 2.1401 31.0624 1.04478 26.4932 3.98569C24.6409 5.75058 23.0836 8.14208 22.0339 11.2478C22.0339 11.2478 16.6621 5.33334 8.06762 8.55924C-0.526897 11.7851 0.0065035 21.1041 0.0065035 21.1041C0.0065035 21.1041 2.47972 13.5158 10.7501 13.035C19.0204 12.5543 23.3267 20.528 23.3267 20.528C23.3267 20.528 24.3768 12.4495 31.877 10.5267C38.7941 8.7601 42.9568 14.1973 41.2073 20.965C44.1882 14.0771 42.9756 7.09484 38.5215 4.05435Z" fill="#00578A"/>
<path d="M35.1424 32.9535C35.1424 32.9535 28.0617 24.5472 15.5781 29.036C15.5781 29.036 21.9577 28.9007 24.8633 36.1864C26.6714 40.7198 22.2833 47.3716 22.2833 47.3716C22.2833 47.3716 29.9987 41.0301 35.1424 32.9535Z" fill="#00578A"/>
<path d="M47.9946 5.66779C43.762 -0.559292 33.182 -2.40595 26.4726 3.96674C31.0451 1.03222 35.7051 2.12516 38.5098 4.03525C42.9724 7.06913 44.1739 14.0294 41.2045 20.9126C41.0218 21.6106 40.7877 22.2943 40.5042 22.958C37.6447 29.687 34.2325 33.9698 34.2325 33.9698C29.2394 41.5074 22.0996 47.4614 22.0996 47.4614C49.7544 35.8741 55.2499 16.3506 47.9946 5.66779Z" fill="#00C6BF"/>
<path style="mix-blend-mode:multiply" opacity="0.29" d="M38.1054 11.1522C41.8093 13.4256 41.8769 18.02 41.1278 20.9229C44.0933 14.0414 42.8842 7.08291 38.4428 4.04979C35.6484 2.14018 31.0052 1.04752 26.4492 3.9813C30.1296 1.83877 38.6971 0.0987043 38.1054 11.1522Z" fill="#00578A"/>
<path style="mix-blend-mode:multiply" opacity="0.29" d="M32.6187 30.7051C31.1161 36.1005 24.9859 44.6954 22.2812 47.3709C22.2812 47.3709 28.8323 42.0355 35.1429 32.8033C34.3616 32.0839 33.5202 31.3046 32.6187 30.7051Z" fill="#00578A"/>
</svg>
